<?xml version="1.0" encoding="UTF-8" standalone="no"?>
<!DOCTYPE svg PUBLIC "-//W3C//DTD SVG 1.1//EN"
 "http://www.w3.org/Graphics/SVG/1.1/DTD/svg11.dtd">
<!-- Generated by graphviz version 2.40.1 (20161225.0304)
 -->
<!-- Title: dependencies Pages: 1 -->
<svg width="1428pt" height="352pt"
 viewBox="0.00 0.00 1428.00 352.00" xmlns="http://www.w3.org/2000/svg" xmlns:xlink="http://www.w3.org/1999/xlink">
<g id="graph0" class="graph" transform="scale(1 1) rotate(0) translate(4 348)">
<title>dependencies</title>
<polygon fill="#ffffff" stroke="transparent" points="-4,4 -4,-348 1424,-348 1424,4 -4,4"/>
<text text-anchor="start" x="689.0091" y="-42.4" font-family="sans-serif" font-weight="bold" font-size="14.00" fill="#000000">Legend</text>
<polygon fill="#ffffb3" stroke="transparent" points="476,-10 476,-30 496,-30 496,-10 476,-10"/>
<text text-anchor="start" x="499.629" y="-15.4" font-family="sans-serif" font-size="14.00" fill="#000000"> &#160;Declarations</text>
<polygon fill="#8dd3c7" stroke="transparent" points="589,-10 589,-30 609,-30 609,-10 589,-10"/>
<text text-anchor="start" x="612.7251" y="-15.4" font-family="sans-serif" font-size="14.00" fill="#000000"> &#160;Module</text>
<polygon fill="#80b1d3" stroke="transparent" points="675,-10 675,-30 695,-30 695,-10 675,-10"/>
<text text-anchor="start" x="698.7812" y="-15.4" font-family="sans-serif" font-size="14.00" fill="#000000"> &#160;Bootstrap</text>
<polygon fill="#fdb462" stroke="transparent" points="772,-10 772,-30 792,-30 792,-10 772,-10"/>
<text text-anchor="start" x="795.6732" y="-15.4" font-family="sans-serif" font-size="14.00" fill="#000000"> &#160;Providers</text>
<polygon fill="#fb8072" stroke="transparent" points="868,-10 868,-30 888,-30 888,-10 868,-10"/>
<text text-anchor="start" x="891.7258" y="-15.4" font-family="sans-serif" font-size="14.00" fill="#000000"> &#160;Exports</text>
<g id="clust1" class="cluster">
<title>cluster_AppModule</title>
<polygon fill="none" stroke="#000000" stroke-dasharray="1,5" points="8,-70 8,-336 688,-336 688,-70 8,-70"/>
</g>
<g id="clust2" class="cluster">
<title>cluster_AppModule_declarations</title>
<polygon fill="none" stroke="#000000" points="293,-146 293,-198 680,-198 680,-146 293,-146"/>
</g>
<g id="clust6" class="cluster">
<title>cluster_AppModule_imports</title>
<polygon fill="none" stroke="#000000" points="16,-78 16,-198 285,-198 285,-78 16,-78"/>
</g>
<g id="clust8" class="cluster">
<title>cluster_AppModule_bootstrap</title>
<polygon fill="none" stroke="#000000" points="228,-276 228,-328 352,-328 352,-276 228,-276"/>
</g>
<g id="clust16" class="cluster">
<title>cluster_ContactsModule</title>
<polygon fill="none" stroke="#000000" stroke-dasharray="1,5" points="696,-70 696,-138 1412,-138 1412,-70 696,-70"/>
</g>
<g id="clust17" class="cluster">
<title>cluster_ContactsModule_declarations</title>
<polygon fill="none" stroke="#000000" points="882,-78 882,-130 1404,-130 1404,-78 882,-78"/>
</g>
<g id="clust21" class="cluster">
<title>cluster_ContactsModule_imports</title>
<polygon fill="none" stroke="#000000" points="704,-78 704,-130 874,-130 874,-78 704,-78"/>
</g>
<!-- AppComponent -->
<g id="node1" class="node">
<title>AppComponent</title>
<polygon fill="#ffffb3" stroke="#000000" points="671.9399,-190 566.0601,-190 566.0601,-154 671.9399,-154 671.9399,-190"/>
<text text-anchor="middle" x="619" y="-167.8" font-family="Times,serif" font-size="14.00" fill="#000000">AppComponent</text>
</g>
<!-- AppModule -->
<g id="node4" class="node">
<title>AppModule</title>
<polygon fill="#8dd3c7" stroke="#000000" points="331.6571,-255 328.6571,-259 307.6571,-259 304.6571,-255 248.3429,-255 248.3429,-219 331.6571,-219 331.6571,-255"/>
<text text-anchor="middle" x="290" y="-232.8" font-family="Times,serif" font-size="14.00" fill="#000000">AppModule</text>
</g>
<!-- AppComponent&#45;&gt;AppModule -->
<g id="edge1" class="edge">
<title>AppComponent&#45;&gt;AppModule</title>
<path fill="none" stroke="#000000" d="M619,-190.2843C619,-211.3211 619,-243 619,-243 619,-243 341.6681,-243 341.6681,-243"/>
<polygon fill="#000000" stroke="#000000" points="341.6681,-239.5001 331.6681,-243 341.668,-246.5001 341.6681,-239.5001"/>
</g>
<!-- HomeComponent -->
<g id="node2" class="node">
<title>HomeComponent</title>
<polygon fill="#ffffb3" stroke="#000000" points="548.5451,-190 433.4549,-190 433.4549,-154 548.5451,-154 548.5451,-190"/>
<text text-anchor="middle" x="491" y="-167.8" font-family="Times,serif" font-size="14.00" fill="#000000">HomeComponent</text>
</g>
<!-- HomeComponent&#45;&gt;AppModule -->
<g id="edge2" class="edge">
<title>HomeComponent&#45;&gt;AppModule</title>
<path fill="none" stroke="#000000" d="M491,-190.0225C491,-207.3734 491,-231 491,-231 491,-231 342.1362,-231 342.1362,-231"/>
<polygon fill="#000000" stroke="#000000" points="342.1362,-227.5001 332.1362,-231 342.1362,-234.5001 342.1362,-227.5001"/>
</g>
<!-- LoginComponent -->
<g id="node3" class="node">
<title>LoginComponent</title>
<polygon fill="#ffffb3" stroke="#000000" points="415.2758,-190 300.7242,-190 300.7242,-154 415.2758,-154 415.2758,-190"/>
<text text-anchor="middle" x="358" y="-167.8" font-family="Times,serif" font-size="14.00" fill="#000000">LoginComponent</text>
</g>
<!-- LoginComponent&#45;&gt;AppModule -->
<g id="edge3" class="edge">
<title>LoginComponent&#45;&gt;AppModule</title>
<path fill="none" stroke="#000000" d="M316.2202,-190.1061C316.2202,-190.1061 316.2202,-208.991 316.2202,-208.991"/>
<polygon fill="#000000" stroke="#000000" points="312.7203,-208.9909 316.2202,-218.991 319.7203,-208.991 312.7203,-208.9909"/>
</g>
<!-- AppComponent  -->
<g id="node8" class="node">
<title>AppComponent </title>
<polygon fill="#80b1d3" stroke="#000000" points="344.439,-320 235.561,-320 235.561,-284 344.439,-284 344.439,-320"/>
<text text-anchor="middle" x="290" y="-297.8" font-family="Times,serif" font-size="14.00" fill="#000000">AppComponent </text>
</g>
<!-- AppModule&#45;&gt;AppComponent  -->
<g id="edge7" class="edge">
<title>AppModule&#45;&gt;AppComponent </title>
<path fill="none" stroke="#000000" stroke-dasharray="1,5" d="M290,-255.1061C290,-255.1061 290,-273.991 290,-273.991"/>
<polygon fill="#000000" stroke="#000000" points="286.5001,-273.9909 290,-283.991 293.5001,-273.991 286.5001,-273.9909"/>
</g>
<!-- AppRoutingModule -->
<g id="node5" class="node">
<title>AppRoutingModule</title>
<polygon fill="#8dd3c7" stroke="#000000" points="152.2744,-122 149.2744,-126 128.2744,-126 125.2744,-122 23.7256,-122 23.7256,-86 152.2744,-86 152.2744,-122"/>
<text text-anchor="middle" x="88" y="-99.8" font-family="Times,serif" font-size="14.00" fill="#000000">AppRoutingModule</text>
</g>
<!-- AppRoutingModule&#45;&gt;AppModule -->
<g id="edge4" class="edge">
<title>AppRoutingModule&#45;&gt;AppModule</title>
<path fill="none" stroke="#000000" d="M88,-122.2142C88,-158.6396 88,-237 88,-237 88,-237 238.1455,-237 238.1455,-237"/>
<polygon fill="#000000" stroke="#000000" points="238.1455,-240.5001 248.1455,-237 238.1454,-233.5001 238.1455,-240.5001"/>
</g>
<!-- ContactsModule -->
<g id="node6" class="node">
<title>ContactsModule</title>
<polygon fill="#8dd3c7" stroke="#000000" points="277.0424,-190 274.0424,-194 253.0424,-194 250.0424,-190 168.9576,-190 168.9576,-154 277.0424,-154 277.0424,-190"/>
<text text-anchor="middle" x="223" y="-167.8" font-family="Times,serif" font-size="14.00" fill="#000000">ContactsModule</text>
</g>
<!-- ContactsModule&#45;&gt;AppModule -->
<g id="edge5" class="edge">
<title>ContactsModule&#45;&gt;AppModule</title>
<path fill="none" stroke="#000000" d="M262.7213,-190.1061C262.7213,-190.1061 262.7213,-208.991 262.7213,-208.991"/>
<polygon fill="#000000" stroke="#000000" points="259.2213,-208.9909 262.7213,-218.991 266.2213,-208.991 259.2213,-208.9909"/>
</g>
<!-- MaterialModule -->
<g id="node7" class="node">
<title>MaterialModule</title>
<polygon fill="#8dd3c7" stroke="#000000" points="277.4706,-122 274.4706,-126 253.4706,-126 250.4706,-122 170.5294,-122 170.5294,-86 277.4706,-86 277.4706,-122"/>
<text text-anchor="middle" x="224" y="-99.8" font-family="Times,serif" font-size="14.00" fill="#000000">MaterialModule</text>
</g>
<!-- MaterialModule&#45;&gt;AppModule -->
<g id="edge6" class="edge">
<title>MaterialModule&#45;&gt;AppModule</title>
<path fill="none" stroke="#000000" d="M277.6114,-98C286.5066,-98 292.9032,-98 292.9032,-98 292.9032,-98 292.9032,-208.8282 292.9032,-208.8282"/>
<polygon fill="#000000" stroke="#000000" points="289.4033,-208.8281 292.9032,-218.8282 296.4033,-208.8282 289.4033,-208.8281"/>
</g>
<!-- MaterialModule&#45;&gt;ContactsModule -->
<g id="edge12" class="edge">
<title>MaterialModule&#45;&gt;ContactsModule</title>
<path fill="none" stroke="#000000" d="M191.8659,-122.2228C191.8659,-122.2228 191.8659,-143.7269 191.8659,-143.7269"/>
<polygon fill="#000000" stroke="#000000" points="188.366,-143.7269 191.8659,-153.7269 195.366,-143.727 188.366,-143.7269"/>
</g>
<!-- ContactsAddComponent -->
<g id="node9" class="node">
<title>ContactsAddComponent</title>
<polygon fill="#ffffb3" stroke="#000000" points="1396.4312,-122 1241.5688,-122 1241.5688,-86 1396.4312,-86 1396.4312,-122"/>
<text text-anchor="middle" x="1319" y="-99.8" font-family="Times,serif" font-size="14.00" fill="#000000">ContactsAddComponent</text>
</g>
<!-- ContactsAddComponent&#45;&gt;ContactsModule -->
<g id="edge8" class="edge">
<title>ContactsAddComponent&#45;&gt;ContactsModule</title>
<path fill="none" stroke="#000000" d="M1319,-122.0555C1319,-133.439 1319,-146 1319,-146 1319,-146 255.9195,-146 255.9195,-146 255.9195,-146 255.9195,-146.7942 255.9195,-146.7942"/>
<polygon fill="#000000" stroke="#000000" points="252.4196,-143.9421 255.9195,-153.9421 259.4196,-143.9422 252.4196,-143.9421"/>
</g>
<!-- ContactsDetailComponent -->
<g id="node10" class="node">
<title>ContactsDetailComponent</title>
<polygon fill="#ffffb3" stroke="#000000" points="1224.0323,-122 1059.9677,-122 1059.9677,-86 1224.0323,-86 1224.0323,-122"/>
<text text-anchor="middle" x="1142" y="-99.8" font-family="Times,serif" font-size="14.00" fill="#000000">ContactsDetailComponent</text>
</g>
<!-- ContactsDetailComponent&#45;&gt;ContactsModule -->
<g id="edge9" class="edge">
<title>ContactsDetailComponent&#45;&gt;ContactsModule</title>
<path fill="none" stroke="#000000" d="M1142,-122.1944C1142,-130.2782 1142,-138 1142,-138 1142,-138 234.5683,-138 234.5683,-138 234.5683,-138 234.5683,-143.8056 234.5683,-143.8056"/>
<polygon fill="#000000" stroke="#000000" points="231.0684,-143.8055 234.5683,-153.8056 238.0684,-143.8056 231.0684,-143.8055"/>
</g>
<!-- ContactsListComponent -->
<g id="node11" class="node">
<title>ContactsListComponent</title>
<polygon fill="#ffffb3" stroke="#000000" points="1042.1024,-122 889.8976,-122 889.8976,-86 1042.1024,-86 1042.1024,-122"/>
<text text-anchor="middle" x="966" y="-99.8" font-family="Times,serif" font-size="14.00" fill="#000000">ContactsListComponent</text>
</g>
<!-- ContactsListComponent&#45;&gt;ContactsModule -->
<g id="edge10" class="edge">
<title>ContactsListComponent&#45;&gt;ContactsModule</title>
<path fill="none" stroke="#000000" d="M966,-122.0579C966,-126.4945 966,-130 966,-130 966,-130 213.2171,-130 213.2171,-130 213.2171,-130 213.2171,-143.9445 213.2171,-143.9445"/>
<polygon fill="#000000" stroke="#000000" points="209.7172,-143.9444 213.2171,-153.9445 216.7172,-143.9445 209.7172,-143.9444"/>
</g>
<!-- ContactsRoutingModule -->
<g id="node12" class="node">
<title>ContactsRoutingModule</title>
<polygon fill="#8dd3c7" stroke="#000000" points="865.6596,-122 862.6596,-126 841.6596,-126 838.6596,-122 712.3404,-122 712.3404,-86 865.6596,-86 865.6596,-122"/>
<text text-anchor="middle" x="789" y="-99.8" font-family="Times,serif" font-size="14.00" fill="#000000">ContactsRoutingModule</text>
</g>
<!-- ContactsRoutingModule&#45;&gt;ContactsModule -->
<g id="edge11" class="edge">
<title>ContactsRoutingModule&#45;&gt;ContactsModule</title>
<path fill="none" stroke="#000000" d="M712.2087,-110C571.1739,-110 285.1943,-110 285.1943,-110 285.1943,-110 285.1943,-172 285.1943,-172 285.1943,-172 284.3812,-172 284.3812,-172"/>
<polygon fill="#000000" stroke="#000000" points="287.0635,-168.5001 277.0635,-172 287.0634,-175.5001 287.0635,-168.5001"/>
</g>
</g>
</svg>
