<?xml version="1.0" encoding="UTF-8" standalone="no"?>
<!DOCTYPE svg PUBLIC "-//W3C//DTD SVG 1.1//EN"
 "http://www.w3.org/Graphics/SVG/1.1/DTD/svg11.dtd">
<!-- Generated by graphviz version 2.40.1 (20161225.0304)
 -->
<!-- Title: dependencies Pages: 1 -->
<svg width="864pt" height="211pt"
 viewBox="0.00 0.00 864.00 211.00" xmlns="http://www.w3.org/2000/svg" xmlns:xlink="http://www.w3.org/1999/xlink">
<g id="graph0" class="graph" transform="scale(1 1) rotate(0) translate(4 207)">
<title>dependencies</title>
<polygon fill="#ffffff" stroke="transparent" points="-4,4 -4,-207 860,-207 860,4 -4,4"/>
<text text-anchor="start" x="407.0091" y="-42.4" font-family="sans-serif" font-weight="bold" font-size="14.00" fill="#000000">Legend</text>
<polygon fill="#ffffb3" stroke="transparent" points="194,-10 194,-30 214,-30 214,-10 194,-10"/>
<text text-anchor="start" x="217.629" y="-15.4" font-family="sans-serif" font-size="14.00" fill="#000000"> &#160;Declarations</text>
<polygon fill="#8dd3c7" stroke="transparent" points="307,-10 307,-30 327,-30 327,-10 307,-10"/>
<text text-anchor="start" x="330.7251" y="-15.4" font-family="sans-serif" font-size="14.00" fill="#000000"> &#160;Module</text>
<polygon fill="#80b1d3" stroke="transparent" points="393,-10 393,-30 413,-30 413,-10 393,-10"/>
<text text-anchor="start" x="416.7812" y="-15.4" font-family="sans-serif" font-size="14.00" fill="#000000"> &#160;Bootstrap</text>
<polygon fill="#fdb462" stroke="transparent" points="490,-10 490,-30 510,-30 510,-10 490,-10"/>
<text text-anchor="start" x="513.6732" y="-15.4" font-family="sans-serif" font-size="14.00" fill="#000000"> &#160;Providers</text>
<polygon fill="#fb8072" stroke="transparent" points="586,-10 586,-30 606,-30 606,-10 586,-10"/>
<text text-anchor="start" x="609.7258" y="-15.4" font-family="sans-serif" font-size="14.00" fill="#000000"> &#160;Exports</text>
<g id="clust1" class="cluster">
<title>cluster_ContactsModule</title>
<polygon fill="none" stroke="#000000" stroke-dasharray="1,5" points="8,-70 8,-195 848,-195 848,-70 8,-70"/>
</g>
<g id="clust2" class="cluster">
<title>cluster_ContactsModule_declarations</title>
<polygon fill="none" stroke="#000000" points="318,-78 318,-130 840,-130 840,-78 318,-78"/>
</g>
<g id="clust6" class="cluster">
<title>cluster_ContactsModule_imports</title>
<polygon fill="none" stroke="#000000" points="16,-78 16,-130 310,-130 310,-78 16,-78"/>
</g>
<!-- ContactsAddComponent -->
<g id="node1" class="node">
<title>ContactsAddComponent</title>
<polygon fill="#ffffb3" stroke="#000000" points="832.4312,-122 677.5688,-122 677.5688,-86 832.4312,-86 832.4312,-122"/>
<text text-anchor="middle" x="755" y="-99.8" font-family="Times,serif" font-size="14.00" fill="#000000">ContactsAddComponent</text>
</g>
<!-- ContactsModule -->
<g id="node4" class="node">
<title>ContactsModule</title>
<polygon fill="#8dd3c7" stroke="#000000" points="456.0424,-187 453.0424,-191 432.0424,-191 429.0424,-187 347.9576,-187 347.9576,-151 456.0424,-151 456.0424,-187"/>
<text text-anchor="middle" x="402" y="-164.8" font-family="Times,serif" font-size="14.00" fill="#000000">ContactsModule</text>
</g>
<!-- ContactsAddComponent&#45;&gt;ContactsModule -->
<g id="edge1" class="edge">
<title>ContactsAddComponent&#45;&gt;ContactsModule</title>
<path fill="none" stroke="#000000" d="M755,-122.2843C755,-143.3211 755,-175 755,-175 755,-175 466.3826,-175 466.3826,-175"/>
<polygon fill="#000000" stroke="#000000" points="466.3827,-171.5001 456.3826,-175 466.3826,-178.5001 466.3827,-171.5001"/>
</g>
<!-- ContactsDetailComponent -->
<g id="node2" class="node">
<title>ContactsDetailComponent</title>
<polygon fill="#ffffb3" stroke="#000000" points="660.0323,-122 495.9677,-122 495.9677,-86 660.0323,-86 660.0323,-122"/>
<text text-anchor="middle" x="578" y="-99.8" font-family="Times,serif" font-size="14.00" fill="#000000">ContactsDetailComponent</text>
</g>
<!-- ContactsDetailComponent&#45;&gt;ContactsModule -->
<g id="edge2" class="edge">
<title>ContactsDetailComponent&#45;&gt;ContactsModule</title>
<path fill="none" stroke="#000000" d="M578,-122.0225C578,-139.3734 578,-163 578,-163 578,-163 466.2419,-163 466.2419,-163"/>
<polygon fill="#000000" stroke="#000000" points="466.2419,-159.5001 456.2419,-163 466.2419,-166.5001 466.2419,-159.5001"/>
</g>
<!-- ContactsListComponent -->
<g id="node3" class="node">
<title>ContactsListComponent</title>
<polygon fill="#ffffb3" stroke="#000000" points="478.1024,-122 325.8976,-122 325.8976,-86 478.1024,-86 478.1024,-122"/>
<text text-anchor="middle" x="402" y="-99.8" font-family="Times,serif" font-size="14.00" fill="#000000">ContactsListComponent</text>
</g>
<!-- ContactsListComponent&#45;&gt;ContactsModule -->
<g id="edge3" class="edge">
<title>ContactsListComponent&#45;&gt;ContactsModule</title>
<path fill="none" stroke="#000000" d="M402,-122.1061C402,-122.1061 402,-140.991 402,-140.991"/>
<polygon fill="#000000" stroke="#000000" points="398.5001,-140.9909 402,-150.991 405.5001,-140.991 398.5001,-140.9909"/>
</g>
<!-- ContactsRoutingModule -->
<g id="node5" class="node">
<title>ContactsRoutingModule</title>
<polygon fill="#8dd3c7" stroke="#000000" points="301.6596,-122 298.6596,-126 277.6596,-126 274.6596,-122 148.3404,-122 148.3404,-86 301.6596,-86 301.6596,-122"/>
<text text-anchor="middle" x="225" y="-99.8" font-family="Times,serif" font-size="14.00" fill="#000000">ContactsRoutingModule</text>
</g>
<!-- ContactsRoutingModule&#45;&gt;ContactsModule -->
<g id="edge4" class="edge">
<title>ContactsRoutingModule&#45;&gt;ContactsModule</title>
<path fill="none" stroke="#000000" d="M225,-122.0225C225,-139.3734 225,-163 225,-163 225,-163 337.9324,-163 337.9324,-163"/>
<polygon fill="#000000" stroke="#000000" points="337.9324,-166.5001 347.9324,-163 337.9324,-159.5001 337.9324,-166.5001"/>
</g>
<!-- MaterialModule -->
<g id="node6" class="node">
<title>MaterialModule</title>
<polygon fill="#8dd3c7" stroke="#000000" points="130.4706,-122 127.4706,-126 106.4706,-126 103.4706,-122 23.5294,-122 23.5294,-86 130.4706,-86 130.4706,-122"/>
<text text-anchor="middle" x="77" y="-99.8" font-family="Times,serif" font-size="14.00" fill="#000000">MaterialModule</text>
</g>
<!-- MaterialModule&#45;&gt;ContactsModule -->
<g id="edge5" class="edge">
<title>MaterialModule&#45;&gt;ContactsModule</title>
<path fill="none" stroke="#000000" d="M77,-122.2843C77,-143.3211 77,-175 77,-175 77,-175 337.6023,-175 337.6023,-175"/>
<polygon fill="#000000" stroke="#000000" points="337.6023,-178.5001 347.6023,-175 337.6023,-171.5001 337.6023,-178.5001"/>
</g>
</g>
</svg>
